<?xml version="1.0" encoding="utf-8"?>
<!-- Svg Vector Icons : http://www.onlinewebfonts.com/icon -->
<!DOCTYPE svg PUBLIC "-//W3C//DTD SVG 1.1//EN" "http://www.w3.org/Graphics/SVG/1.1/DTD/svg11.dtd">
<svg version="1.1" xmlns="http://www.w3.org/2000/svg" xmlns:xlink="http://www.w3.org/1999/xlink" x="0px" y="0px" viewBox="0 0 1000 1000" enable-background="new 0 0 1000 1000" xml:space="preserve">
<metadata> Svg Vector Icons : http://www.onlinewebfonts.com/icon </metadata>
<g><g transform="translate(0.000000,232.000000) scale(0.100000,-0.100000)"><path d="M4988.8,1838.9C3805.2,1601.4,2851.2,964.1,2229.7-1.8c-197.9-304.8-348.3-589.8-348.3-653.2c0-23.8,269.2-39.6,787.7-39.6c902.6,0,902.6,0,760,324.6c-63.3,146.5-102.9,186-257.3,245.4c-170.2,67.3-194,67.3-257.3,7.9c-99-91.1-134.6-79.2-213.8,55.4c-87.1,146.5-67.3,209.8,122.7,427.5c154.4,174.2,253.4,213.8,1266.7,467.1l289,75.2l285-102.9c186.1-67.3,312.7-91,364.2-71.2c43.5,15.8,106.9,31.7,138.5,31.7c91,4,803.6-617.5,977.8-847.1c79.2-106.9,205.8-265.2,277.1-348.3c106.9-122.7,126.7-162.3,91-209.8c-43.5-47.5,134.6-55.4,1231.1-63.3l1282.6-11.9l19.8-150.4c19.8-146.5,31.7-158.3,253.4-249.4c130.6-51.5,249.4-118.8,265.2-142.5c67.3-106.9,126.7-720.4,106.9-1128.2c-19.8-399.8-142.5-965.9-229.6-1056.9c-19.8-19.8-106.9,79.2-201.9,229.6c-87.1,142.5-174.2,261.3-190,261.3c-19.8,0-19.8-684.9,7.9-1524l7.9-316.7l146.5,225.6c657.1,1009.4,855,2264.3,542.3,3396.4c-233.6,847.1-783.8,1666.5-1476.6,2193c-554.2,423.6-1132.1,680.9-1828.8,811.5C5930.9,1933.9,5475.7,1933.9,4988.8,1838.9z M6322.8,1593.5c213.7-47.5,387.9-99,387.9-110.8c0-11.9-75.2-99-170.2-190l-166.3-162.3l-498.8-27.7l-494.8-27.7l-304.8,194c-166.3,106.9-304.8,205.8-304.8,221.7c0,47.5,692.7,174.2,1029.2,186C5875.5,1676.6,6113,1641,6322.8,1593.5z M8472.3,473.2c186.1-154.4,874.8-1116.3,835.2-1155.9c-7.9-11.9-154.4,51.5-324.6,138.5l-312.7,154.4l-150.4-99c-122.7-83.1-170.2-91.1-273.2-63.3l-122.7,35.6l-7.9,475c-7.9,344.4,3.9,506.7,47.5,585.8c27.7,59.4,63.3,106.9,79.2,106.9C8254.6,651.3,8357.5,572.2,8472.3,473.2z"/><path d="M923.4-999.4L100-1011.2v-672.9v-672.9h1326.1h1326.1l-7.9,684.8l-11.9,680.9h-494.8C1964.5-987.5,1374.7-995.4,923.4-999.4z"/><path d="M2989.7-1660.4v-696.7h1345.9h1345.9v672.9v672.9H4640.4c-574,0-1179.7,11.9-1345.9,23.8l-304.8,27.7V-1660.4z"/><path d="M6109-999.4l-150.4-15.8v-672.9v-669h1345.9h1345.9v669v669l-122.7,23.8C8397.1-971.6,6362.4-975.6,6109-999.4z"/><path d="M107.9-3311.1l11.9-672.9h593.8h593.8l11.9,672.9l7.9,676.9H713.6H100L107.9-3311.1z"/><path d="M1635.9-3323l11.9-684.9l1322.1-7.9l1326.1-7.9v692.7v696.7H2962H1624L1635.9-3323z"/><path d="M4612.7-3330.9v-696.7l1338,23.8l1334,27.7l11.9,669l7.9,672.9H5958.6H4612.7V-3330.9z"/><path d="M7542-3303.2c0-574,7.9-672.9,63.3-692.7c35.6-11.9,285-23.7,554.2-23.7h490.9v692.8v692.7h-554.2H7542V-3303.2z"/><path d="M107.9-4938.1l11.9-684.8l1290.5-11.9l1290.5-7.9l23.7,324.6c15.8,182.1,27.7,494.8,27.7,696.7v364.2H1426.1H100L107.9-4938.1z"/><path d="M2997.7-4938.1l11.9-684.8l1338-11.9l1334-7.9v692.7v692.8H4335.6H2989.7L2997.7-4938.1z"/><path d="M5958.6-4950v-692.7l1338,7.9l1334,11.9l11.9,684.8l7.9,680.9H7304.5H5958.6V-4950z"/><path d="M107.9-6561.1l11.9-684.8l605.6-11.9l601.7-11.9v696.7v692.7H713.6H100L107.9-6561.1z"/><path d="M1604.2-6572.9v-692.7h1345.9H4296v692.7v692.7H2950.1H1604.2V-6572.9z"/><path d="M4581.1-6561.1l11.9-684.8h1345.9h1345.9l11.9,684.8l7.9,680.9H5938.8H4573.1L4581.1-6561.1z"/><path d="M7550-6561.1l11.9-684.8h534.4h534.4l11.9,684.8l7.9,680.9h-554.2H7542L7550-6561.1z"/></g></g>
</svg>