<?xml version="1.0" encoding="utf-8"?>
<!-- Generator: Adobe Illustrator 23.0.0, SVG Export Plug-In . SVG Version: 6.00 Build 0)  -->
<svg version="1.1" id="Layer_1" xmlns="http://www.w3.org/2000/svg" xmlns:xlink="http://www.w3.org/1999/xlink" x="0px" y="0px"
	 viewBox="0 0 673 612" style="enable-background:new 0 0 673 612;" xml:space="preserve">
<style type="text/css">
	.st0{display:none;}
	.st1{opacity:0.6;fill:#3492E1;enable-background:new    ;}
	.st2{fill:#FDFFFD;stroke:#3492E1;stroke-width:4.6538;stroke-miterlimit:10;}
	.st3{fill:#FDFFFD;stroke:#3492E1;stroke-width:4.8724;stroke-miterlimit:10;}
	.st4{fill:none;stroke:#3492E1;stroke-width:5;stroke-miterlimit:10;}
	.st5{fill:#FFFFFF;}
	.st6{fill:none;stroke:#FFFFFF;stroke-width:5;stroke-miterlimit:10;}
	.st7{fill:none;stroke:#FCFCFC;stroke-width:5;stroke-miterlimit:10;}
	.st8{fill:#FFFFFF;enable-background:new    ;}
	.st9{fill:#FFFFFF;stroke:#3492E1;stroke-width:3;stroke-miterlimit:10;}
	.st10{fill:#3492E1;stroke:#3492E1;stroke-miterlimit:10;}
	.st11{fill:#3492E1;stroke:#3492E1;stroke-width:5;stroke-linecap:round;stroke-linejoin:round;stroke-miterlimit:10;}
	.st12{fill:none;stroke:#3492E1;stroke-width:5;stroke-linecap:round;stroke-linejoin:round;stroke-miterlimit:10;}
	.st13{fill:#FFFFFF;stroke:#3492E1;stroke-width:5;stroke-linecap:round;stroke-linejoin:round;stroke-miterlimit:10;}
	.st14{fill:#53BC48;stroke:#3492E1;stroke-width:5;stroke-linecap:round;stroke-linejoin:round;stroke-miterlimit:10;}
</style>
<g class="st0">
</g>
<g>
	<path class="st1" d="M445.2,510.7H224.6c-4,0-7.2-3.2-7.2-7.2v-53.6c0-4,3.2-7.2,7.2-7.2h220.6c4,0,7.2,3.2,7.2,7.2v53.6
		C452.4,507.5,449.2,510.7,445.2,510.7z"/>
	<path class="st1" d="M445.2,415.7H224.6c-4,0-7.2-3.2-7.2-7.2v-53.6c0-4,3.2-7.2,7.2-7.2h220.6c4,0,7.2,3.2,7.2,7.2v53.6
		C452.4,412.5,449.2,415.7,445.2,415.7z"/>
	<rect x="230.4" y="510.7" class="st2" width="209" height="26"/>
	<rect x="230.4" y="413.7" class="st3" width="209" height="28.5"/>
	<g>
		<path class="st4" d="M445.2,413.7H224.6c-4,0-7.2-3.2-7.2-7.2v-53.6c0-4,3.2-7.2,7.2-7.2h220.6c4,0,7.2,3.2,7.2,7.2v53.6
			C452.4,410.5,449.2,413.7,445.2,413.7z"/>
		<g>
			<rect x="239.4" y="359.7" class="st5" width="15" height="17"/>
			<rect x="268.4" y="359.7" class="st5" width="15" height="17"/>
			<rect x="297.4" y="359.7" class="st5" width="15" height="17"/>
			<rect x="239.4" y="383.7" class="st5" width="15" height="17"/>
			<rect x="268.4" y="383.7" class="st5" width="15" height="17"/>
			<rect x="297.4" y="383.7" class="st5" width="15" height="17"/>
		</g>
		<path class="st6" d="M388.4,400.7L388.4,400.7c-1.1,0-2-0.9-2-2v-35c0-1.1,0.9-2,2-2l0,0c1.1,0,2,0.9,2,2v35
			C390.4,399.8,389.5,400.7,388.4,400.7z"/>
		<circle class="st5" cx="416.9" cy="379.2" r="8.5"/>
	</g>
	<g>
		<path class="st4" d="M445.2,509.7H224.6c-4,0-7.2-3.2-7.2-7.2v-53.6c0-4,3.2-7.2,7.2-7.2h220.6c4,0,7.2,3.2,7.2,7.2v53.6
			C452.4,506.5,449.2,509.7,445.2,509.7z"/>
		<g>
			<rect x="239.4" y="455.7" class="st5" width="15" height="17"/>
			<rect x="268.4" y="455.7" class="st5" width="15" height="17"/>
			<rect x="297.4" y="455.7" class="st5" width="15" height="17"/>
			<rect x="239.4" y="479.7" class="st5" width="15" height="17"/>
			<rect x="268.4" y="479.7" class="st5" width="15" height="17"/>
			<rect x="297.4" y="479.7" class="st5" width="15" height="17"/>
		</g>
		<path class="st7" d="M388.4,496.7L388.4,496.7c-1.1,0-2-0.9-2-2v-35c0-1.1,0.9-2,2-2l0,0c1.1,0,2,0.9,2,2v35
			C390.4,495.8,389.5,496.7,388.4,496.7z"/>
		<circle class="st5" cx="416.9" cy="475.2" r="8.5"/>
	</g>
	<g>
		<path class="st1" d="M445.2,605.7H224.6c-4,0-7.2-3.2-7.2-7.2v-53.6c0-4,3.2-7.2,7.2-7.2h220.6c4,0,7.2,3.2,7.2,7.2v53.6
			C452.4,602.5,449.2,605.7,445.2,605.7z"/>
		<path class="st4" d="M445.2,605.7H224.6c-4,0-7.2-3.2-7.2-7.2v-53.6c0-4,3.2-7.2,7.2-7.2h220.6c4,0,7.2,3.2,7.2,7.2v53.6
			C452.4,602.5,449.2,605.7,445.2,605.7z"/>
		<g>
			<rect x="239.4" y="551.7" class="st5" width="15" height="17"/>
			<rect x="268.4" y="551.7" class="st5" width="15" height="17"/>
			<rect x="297.4" y="551.7" class="st5" width="15" height="17"/>
			<rect x="239.4" y="575.7" class="st5" width="15" height="17"/>
			<rect x="268.4" y="575.7" class="st5" width="15" height="17"/>
			<rect x="297.4" y="575.7" class="st5" width="15" height="17"/>
		</g>
		<path class="st7" d="M388.4,592.7L388.4,592.7c-1.1,0-2-0.9-2-2v-35c0-1.1,0.9-2,2-2l0,0c1.1,0,2,0.9,2,2v35
			C390.4,591.8,389.5,592.7,388.4,592.7z"/>
		<circle class="st5" cx="416.9" cy="571.2" r="8.5"/>
	</g>
</g>
<g>
	<g>
		<rect x="432.9" y="169.1" class="st2" width="209" height="26"/>
		<g>
			<path class="st8" d="M647.7,264.1H427.1c-4,0-7.2-3.2-7.2-7.2v-53.6c0-4,3.2-7.2,7.2-7.2h220.6c4,0,7.2,3.2,7.2,7.2v53.6
				C654.9,260.9,651.7,264.1,647.7,264.1z"/>
			<path class="st4" d="M647.7,264.1H427.1c-4,0-7.2-3.2-7.2-7.2v-53.6c0-4,3.2-7.2,7.2-7.2h220.6c4,0,7.2,3.2,7.2,7.2v53.6
				C654.9,260.9,651.7,264.1,647.7,264.1z"/>
			<g>
				<rect x="441.9" y="210.1" class="st9" width="15" height="17"/>
				<rect x="470.9" y="210.1" class="st9" width="15" height="17"/>
				<rect x="499.9" y="210.1" class="st9" width="15" height="17"/>
				<rect x="441.9" y="234.1" class="st9" width="15" height="17"/>
				<rect x="470.9" y="234.1" class="st9" width="15" height="17"/>
				<rect x="499.9" y="234.1" class="st9" width="15" height="17"/>
			</g>
			<path class="st4" d="M590.9,251.1L590.9,251.1c-1.1,0-2-0.9-2-2v-35c0-1.1,0.9-2,2-2l0,0c1.1,0,2,0.9,2,2v35
				C592.9,250.2,592,251.1,590.9,251.1z"/>
			<circle class="st10" cx="619.4" cy="229.6" r="8.5"/>
		</g>
	</g>
	<g>
		<rect x="432.9" y="75.1" class="st2" width="209" height="26"/>
		<g>
			<path class="st8" d="M647.7,170.1H427.1c-4,0-7.2-3.2-7.2-7.2v-53.6c0-4,3.2-7.2,7.2-7.2h220.6c4,0,7.2,3.2,7.2,7.2v53.6
				C654.9,166.9,651.7,170.1,647.7,170.1z"/>
			<path class="st4" d="M647.7,170.1H427.1c-4,0-7.2-3.2-7.2-7.2v-53.6c0-4,3.2-7.2,7.2-7.2h220.6c4,0,7.2,3.2,7.2,7.2v53.6
				C654.9,166.9,651.7,170.1,647.7,170.1z"/>
			<g>
				<rect x="441.9" y="116.1" class="st9" width="15" height="17"/>
				<rect x="470.9" y="116.1" class="st9" width="15" height="17"/>
				<rect x="499.9" y="116.1" class="st9" width="15" height="17"/>
				<rect x="441.9" y="140.1" class="st9" width="15" height="17"/>
				<rect x="470.9" y="140.1" class="st9" width="15" height="17"/>
				<rect x="499.9" y="140.1" class="st9" width="15" height="17"/>
			</g>
			<path class="st4" d="M590.9,157.1L590.9,157.1c-1.1,0-2-0.9-2-2v-35c0-1.1,0.9-2,2-2l0,0c1.1,0,2,0.9,2,2v35
				C592.9,156.2,592,157.1,590.9,157.1z"/>
			<circle class="st10" cx="619.4" cy="135.6" r="8.5"/>
		</g>
	</g>
	<g>
		<g>
			<path class="st8" d="M647.7,75.1H427.1c-4,0-7.2-3.2-7.2-7.2V14.3c0-4,3.2-7.2,7.2-7.2h220.6c4,0,7.2,3.2,7.2,7.2v53.6
				C654.9,71.9,651.7,75.1,647.7,75.1z"/>
			<path class="st4" d="M647.7,75.1H427.1c-4,0-7.2-3.2-7.2-7.2V14.3c0-4,3.2-7.2,7.2-7.2h220.6c4,0,7.2,3.2,7.2,7.2v53.6
				C654.9,71.9,651.7,75.1,647.7,75.1z"/>
			<g>
				<rect x="441.9" y="21.1" class="st9" width="15" height="17"/>
				<rect x="470.9" y="21.1" class="st9" width="15" height="17"/>
				<rect x="499.9" y="21.1" class="st9" width="15" height="17"/>
				<rect x="441.9" y="45.1" class="st9" width="15" height="17"/>
				<rect x="470.9" y="45.1" class="st9" width="15" height="17"/>
				<rect x="499.9" y="45.1" class="st9" width="15" height="17"/>
			</g>
			<path class="st4" d="M590.9,62.1L590.9,62.1c-1.1,0-2-0.9-2-2v-35c0-1.1,0.9-2,2-2l0,0c1.1,0,2,0.9,2,2v35
				C592.9,61.2,592,62.1,590.9,62.1z"/>
			<circle class="st10" cx="619.4" cy="40.6" r="8.5"/>
		</g>
	</g>
</g>
<g>
	<g>
		<rect x="34.9" y="169.1" class="st2" width="209" height="26"/>
		<g>
			<path class="st8" d="M249.7,264.1H29.1c-4,0-7.2-3.2-7.2-7.2v-53.6c0-4,3.2-7.2,7.2-7.2h220.6c4,0,7.2,3.2,7.2,7.2v53.6
				C256.9,260.9,253.7,264.1,249.7,264.1z"/>
			<path class="st4" d="M249.7,264.1H29.1c-4,0-7.2-3.2-7.2-7.2v-53.6c0-4,3.2-7.2,7.2-7.2h220.6c4,0,7.2,3.2,7.2,7.2v53.6
				C256.9,260.9,253.7,264.1,249.7,264.1z"/>
			<g>
				<rect x="43.9" y="210.1" class="st9" width="15" height="17"/>
				<rect x="72.9" y="210.1" class="st9" width="15" height="17"/>
				<rect x="101.9" y="210.1" class="st9" width="15" height="17"/>
				<rect x="43.9" y="234.1" class="st9" width="15" height="17"/>
				<rect x="72.9" y="234.1" class="st9" width="15" height="17"/>
				<rect x="101.9" y="234.1" class="st9" width="15" height="17"/>
			</g>
			<path class="st4" d="M192.9,251.1L192.9,251.1c-1.1,0-2-0.9-2-2v-35c0-1.1,0.9-2,2-2l0,0c1.1,0,2,0.9,2,2v35
				C194.9,250.2,194,251.1,192.9,251.1z"/>
			<circle class="st10" cx="221.4" cy="229.6" r="8.5"/>
		</g>
	</g>
	<g>
		<rect x="34.9" y="75.1" class="st2" width="209" height="26"/>
		<g>
			<path class="st8" d="M249.7,170.1H29.1c-4,0-7.2-3.2-7.2-7.2v-53.6c0-4,3.2-7.2,7.2-7.2h220.6c4,0,7.2,3.2,7.2,7.2v53.6
				C256.9,166.9,253.7,170.1,249.7,170.1z"/>
			<path class="st4" d="M249.7,170.1H29.1c-4,0-7.2-3.2-7.2-7.2v-53.6c0-4,3.2-7.2,7.2-7.2h220.6c4,0,7.2,3.2,7.2,7.2v53.6
				C256.9,166.9,253.7,170.1,249.7,170.1z"/>
			<g>
				<rect x="43.9" y="116.1" class="st9" width="15" height="17"/>
				<rect x="72.9" y="116.1" class="st9" width="15" height="17"/>
				<rect x="101.9" y="116.1" class="st9" width="15" height="17"/>
				<rect x="43.9" y="140.1" class="st9" width="15" height="17"/>
				<rect x="72.9" y="140.1" class="st9" width="15" height="17"/>
				<rect x="101.9" y="140.1" class="st9" width="15" height="17"/>
			</g>
			<path class="st4" d="M192.9,157.1L192.9,157.1c-1.1,0-2-0.9-2-2v-35c0-1.1,0.9-2,2-2l0,0c1.1,0,2,0.9,2,2v35
				C194.9,156.2,194,157.1,192.9,157.1z"/>
			<circle class="st10" cx="221.4" cy="135.6" r="8.5"/>
		</g>
	</g>
	<g>
		<g>
			<path class="st8" d="M249.7,75.1H29.1c-4,0-7.2-3.2-7.2-7.2V14.3c0-4,3.2-7.2,7.2-7.2h220.6c4,0,7.2,3.2,7.2,7.2v53.6
				C256.9,71.9,253.7,75.1,249.7,75.1z"/>
			<path class="st4" d="M249.7,75.1H29.1c-4,0-7.2-3.2-7.2-7.2V14.3c0-4,3.2-7.2,7.2-7.2h220.6c4,0,7.2,3.2,7.2,7.2v53.6
				C256.9,71.9,253.7,75.1,249.7,75.1z"/>
			<g>
				<rect x="43.9" y="21.1" class="st9" width="15" height="17"/>
				<rect x="72.9" y="21.1" class="st9" width="15" height="17"/>
				<rect x="101.9" y="21.1" class="st9" width="15" height="17"/>
				<rect x="43.9" y="45.1" class="st9" width="15" height="17"/>
				<rect x="72.9" y="45.1" class="st9" width="15" height="17"/>
				<rect x="101.9" y="45.1" class="st9" width="15" height="17"/>
			</g>
			<path class="st4" d="M192.9,62.1L192.9,62.1c-1.1,0-2-0.9-2-2v-35c0-1.1,0.9-2,2-2l0,0c1.1,0,2,0.9,2,2v35
				C194.9,61.2,194,62.1,192.9,62.1z"/>
			<circle class="st10" cx="221.4" cy="40.6" r="8.5"/>
		</g>
	</g>
</g>
<polyline class="st11" points="14,306 334,306 659,306 "/>
<line class="st12" x1="335" y1="345" x2="335" y2="303"/>
<line class="st12" x1="140" y1="279" x2="140" y2="265"/>
<line class="st12" x1="537" y1="279" x2="537" y2="265"/>
<circle class="st13" cx="334.5" cy="306" r="26"/>
<circle class="st14" cx="537" cy="306" r="26"/>
<circle class="st13" cx="138" cy="306" r="26"/>
</svg>
