<?xml version="1.0" encoding="UTF-8"?>
<svg width="60px" height="60px" viewBox="0 0 60 60" version="1.1" xmlns="http://www.w3.org/2000/svg" xmlns:xlink="http://www.w3.org/1999/xlink">
    <!-- Generator: Sketch 42 (36781) - http://www.bohemiancoding.com/sketch -->
    <title>security-icon</title>
    <desc>Created with Sketch.</desc>
    <defs></defs>
    <g id="Page-1" stroke="none" stroke-width="1" fill="none" fill-rule="evenodd">
        <g id="security-icon">
            <path d="M8.02016117,15.8375205 C7.16593126,22.0668401 7.25422949,28.7753604 8.91813602,35.0287417 C11.6760968,45.3938552 18.3058857,52.6058513 29.9350563,55.4571507 C41.5340181,52.60618 48.1441276,45.3950097 50.8903424,35.0302637 C52.5463774,28.780067 52.6318409,22.0747032 51.777524,15.8465657 C51.676699,15.1115316 51.569683,14.4450724 51.4623376,13.8554389 C51.0768227,13.7887402 50.6628414,13.7155255 50.2259511,13.6363623 C48.5304987,13.3291513 46.834465,12.9953227 45.2475722,12.6457671 C42.8566625,12.1191052 40.9273607,11.6042053 39.5919293,11.1034185 C38.4919822,10.6909383 37.1690067,10.0533753 35.6520174,9.2268445 C35.163068,8.96044073 34.6579951,8.67649626 34.138333,8.37661135 C32.9714628,7.70323777 31.8115045,6.99757173 30.5930037,6.23164073 C30.3855214,6.10122048 30.1839094,5.97382124 29.9645355,5.83467065 C29.6618008,5.92208506 29.4293678,6.07131439 29.1842414,6.22726854 C28.0339971,6.95907609 26.8377586,7.69101149 25.654425,8.37573303 C25.1250374,8.68205667 24.6089238,8.97259376 24.1089847,9.24494049 C22.6106675,10.0611636 21.2971026,10.6935442 20.2041045,11.1034185 C18.868673,11.6042053 16.9393713,12.1191052 14.5484616,12.6457671 C12.9615688,12.9953227 11.2655351,13.3291513 9.57008269,13.6363623 C9.13322123,13.7155203 8.71926571,13.7887305 8.33377247,13.8554257 C8.22696195,14.4424879 8.12048742,15.1059092 8.02016117,15.8375205 Z M7.42880508,10.9668489 C7.91316888,10.8844918 8.45332685,10.7898644 9.03520126,10.6844304 C10.6964354,10.3834197 12.3570881,10.0565551 13.9031027,9.71600396 C16.1655801,9.21763271 17.9805856,8.73323669 19.1507342,8.29443096 C20.0897644,7.94229464 21.2879696,7.36545089 22.673839,6.61048482 C23.150191,6.35098733 23.6440068,6.07300245 24.1519183,5.77910568 C25.2953787,5.11745625 26.4567558,4.40685133 27.5738751,3.69611855 C27.9649228,3.44732644 28.3222341,3.21646374 28.6381632,3.00958147 C28.8265106,2.88624452 28.958337,2.79889719 29.0260283,2.75357567 L29.4047637,2.5 L29.8605499,2.5 C30.344314,2.5 34.6830522,5.22726478 35.6377998,5.77822736 C36.1370286,6.0663207 36.6208794,6.33833442 37.087345,6.59248794 C38.4918473,7.35773017 39.6998624,7.93989203 40.6452996,8.29443096 C41.8154482,8.73323669 43.6304537,9.21763271 45.892931,9.71600396 C47.4389457,10.0565551 49.0995984,10.3834197 50.7608325,10.6844304 C51.3427069,10.7898644 51.8828649,10.8844918 52.3672287,10.9668489 C52.6567806,11.0160818 52.8625708,11.0501535 52.970561,11.0676109 L53.9660243,11.2285347 L54.1927696,12.2110978 C54.2305515,12.3748196 54.2929917,12.671769 54.3717385,13.0906196 C54.5009941,13.7781243 54.6297731,14.5646357 54.7496925,15.4388718 C55.6533293,22.0265607 55.5630758,29.1077392 53.7902777,35.7986226 C50.747388,47.283077 43.2333959,55.3981886 30.2805221,58.4597769 L29.9358954,58.5412341 L29.5912252,58.4599609 C16.609351,55.3988362 9.07477079,47.2844698 6.01900898,35.8001446 C4.23757256,29.1050562 4.14431485,22.0197362 5.04797666,15.4299432 C5.1675365,14.5580743 5.29593075,13.773749 5.42480213,13.0881967 C5.50331948,12.6705108 5.56558217,12.3743866 5.60326419,12.2110978 L5.83000952,11.2285347 L6.82547283,11.0676109 C6.93346295,11.0501535 7.13925314,11.0160818 7.42880508,10.9668489 Z" id="Path-54" fill="#B3D1EF" fill-rule="nonzero"></path>
            <g id="Group" transform="translate(20.000000, 17.000000)" fill="#0D83D1">
                <path d="M13.9473684,9.9047619 L13.9473684,5.4472019 C13.9473684,3.54280341 12.4043296,2 10.5,2 C8.5997175,2 7.05263158,3.54583867 7.05263158,5.4472019 L7.05263158,9.9047619 L13.9473684,9.9047619 Z M5.05263158,5.4472019 C5.05263158,2.43879536 7.49762318,0 10.5,0 C13.5084985,0 15.9473684,2.43783334 15.9473684,5.4472019 L15.9473684,11.9047619 L5.05263158,11.9047619 L5.05263158,5.4472019 Z" id="Rectangle-48" fill-rule="nonzero"></path>
                <path d="M9,16.5001831 L9,20.501424 C9,21.3349702 9.67157288,22 10.5,22 C11.3342028,22 12,21.3290647 12,20.501424 L12,16.5001831 C12.6072234,16.0440799 13,15.3179089 13,14.5 C13,13.1192881 11.8807119,12 10.5,12 C9.11928813,12 8,13.1192881 8,14.5 C8,15.3179089 8.39277665,16.0440799 9,16.5001831 Z M0,11.3322482 C0,9.67599327 1.34559019,8.33333333 3.00878799,8.33333333 L17.991212,8.33333333 C19.6529197,8.33333333 21,9.66906324 21,11.3322482 L21,22.0010851 C21,23.6573401 19.6544098,25 17.991212,25 L3.00878799,25 C1.34708027,25 0,23.6642701 0,22.0010851 L0,11.3322482 Z" id="Combined-Shape"></path>
            </g>
            <g id="Group" transform="translate(28.000000, 30.000000)"></g>
        </g>
    </g>
</svg>