<?xml version="1.0" encoding="UTF-8"?>
<!DOCTYPE svg PUBLIC "-//W3C//DTD SVG 1.1//EN" "http://www.w3.org/Graphics/SVG/1.1/DTD/svg11.dtd">
<svg xmlns="http://www.w3.org/2000/svg" version="1.1" width="268px" height="120px" style="shape-rendering:geometricPrecision; text-rendering:geometricPrecision; image-rendering:optimizeQuality; fill-rule:evenodd; clip-rule:evenodd" xmlns:xlink="http://www.w3.org/1999/xlink">
<g><path style="opacity:0.196" fill="#9fdef8" d="M 243.5,12.5 C 244.455,14.7457 245.122,17.079 245.5,19.5C 244.046,17.5635 242.379,15.8968 240.5,14.5C 241.29,13.5987 242.29,12.9321 243.5,12.5 Z"/></g>
<g><path style="opacity:1" fill="#42b6f1" d="M 243.5,12.5 C 251.958,11.9041 257.291,15.5708 259.5,23.5C 259.03,24.6935 258.03,25.3601 256.5,25.5C 253.86,24.9049 251.193,24.5715 248.5,24.5C 248.25,22.326 247.25,20.6594 245.5,19.5C 245.122,17.079 244.455,14.7457 243.5,12.5 Z M 247.5,16.5 C 251.992,16.3232 254.992,18.3232 256.5,22.5C 251.43,23.7897 248.43,21.7897 247.5,16.5 Z"/></g>
<g><path style="opacity:0.196" fill="#a3dff9" d="M 245.5,19.5 C 247.25,20.6594 248.25,22.326 248.5,24.5C 248.167,24.5 247.833,24.5 247.5,24.5C 247.167,23.5 246.5,22.8333 245.5,22.5C 245.5,21.5 245.5,20.5 245.5,19.5 Z"/></g>
<g><path style="opacity:1" fill="#63bdf2" d="M 240.5,14.5 C 242.379,15.8968 244.046,17.5635 245.5,19.5C 245.5,20.5 245.5,21.5 245.5,22.5C 245.737,23.791 245.404,24.791 244.5,25.5C 244.011,22.5335 242.845,19.8668 241,17.5C 239.414,20.3405 237.58,23.0072 235.5,25.5C 236.476,28.1629 237.81,30.4962 239.5,32.5C 238.194,33.4674 237.527,34.8007 237.5,36.5C 235.606,33.0377 233.939,29.371 232.5,25.5C 234.441,21.2746 237.108,17.6079 240.5,14.5 Z"/></g>
<g><path style="opacity:1" fill="#39adef" d="M 245.5,22.5 C 246.5,22.8333 247.167,23.5 247.5,24.5C 247.5,24.8333 247.5,25.1667 247.5,25.5C 246.833,25.5 246.5,25.8333 246.5,26.5C 245.5,26.8333 244.833,27.5 244.5,28.5C 244.5,28.8333 244.5,29.1667 244.5,29.5C 243.833,29.5 243.5,29.8333 243.5,30.5C 242.5,30.8333 241.833,31.5 241.5,32.5C 241.5,32.8333 241.5,33.1667 241.5,33.5C 240.833,33.5 240.5,33.8333 240.5,34.5C 239.5,34.8333 238.833,35.5 238.5,36.5C 238.167,36.5 237.833,36.5 237.5,36.5C 237.527,34.8007 238.194,33.4674 239.5,32.5C 240.786,29.883 242.453,27.5496 244.5,25.5C 245.404,24.791 245.737,23.791 245.5,22.5 Z"/></g>
<g><path style="opacity:0.671" fill="#58c0eb" d="M 259.5,23.5 C 260.478,23.811 261.145,24.4777 261.5,25.5C 260.359,26.4255 260.359,27.2588 261.5,28C 260.956,28.7172 260.289,29.2172 259.5,29.5C 259.53,28.5028 259.03,27.8361 258,27.5C 254.863,26.6394 251.697,25.9728 248.5,25.5C 248.5,25.1667 248.5,24.8333 248.5,24.5C 251.193,24.5715 253.86,24.9049 256.5,25.5C 258.03,25.3601 259.03,24.6935 259.5,23.5 Z"/></g>
<g><path style="opacity:0.122" fill="#bfe6f4" d="M 246.5,26.5 C 246.833,26.5 247.167,26.5 247.5,26.5C 247.167,27.5 246.5,28.1667 245.5,28.5C 245.167,28.5 244.833,28.5 244.5,28.5C 244.833,27.5 245.5,26.8333 246.5,26.5 Z"/></g>
<g><path style="opacity:0.161" fill="#bbe4f3" d="M 243.5,30.5 C 243.833,30.5 244.167,30.5 244.5,30.5C 244.167,31.5 243.5,32.1667 242.5,32.5C 242.167,32.5 241.833,32.5 241.5,32.5C 241.833,31.5 242.5,30.8333 243.5,30.5 Z"/></g>
<g><path style="opacity:0.239" fill="#a9dcf0" d="M 240.5,34.5 C 240.833,34.5 241.167,34.5 241.5,34.5C 241.167,35.5 240.5,36.1667 239.5,36.5C 239.167,36.5 238.833,36.5 238.5,36.5C 238.833,35.5 239.5,34.8333 240.5,34.5 Z"/></g>
<g><path style="opacity:0.715" fill="#1cc1ff" d="M 16.5,36.5 C 28.5185,36.1677 40.5185,36.501 52.5,37.5C 46.5,37.8333 40.5,38.1667 34.5,38.5C 28.1275,38.496 22.1275,37.8293 16.5,36.5 Z"/></g>
<g><path style="opacity:1" fill="#389dd3" d="M 247.5,25.5 C 247.833,25.5 248.167,25.5 248.5,25.5C 251.697,25.9728 254.863,26.6394 258,27.5C 259.03,27.8361 259.53,28.5028 259.5,29.5C 257.384,32.7889 255.051,35.9556 252.5,39C 249.5,39.6667 246.5,39.6667 243.5,39C 241.563,38.8784 240.23,38.045 239.5,36.5C 240.5,36.1667 241.167,35.5 241.5,34.5C 241.5,34.1667 241.5,33.8333 241.5,33.5C 242.167,33.5 242.5,33.1667 242.5,32.5C 243.5,32.1667 244.167,31.5 244.5,30.5C 244.5,30.1667 244.5,29.8333 244.5,29.5C 245.167,29.5 245.5,29.1667 245.5,28.5C 246.5,28.1667 247.167,27.5 247.5,26.5C 247.5,26.1667 247.5,25.8333 247.5,25.5 Z M 249.5,27.5 C 251.823,28.0584 254.157,28.7251 256.5,29.5C 254.573,32.35 252.406,35.0167 250,37.5C 247.853,36.8875 245.686,36.2208 243.5,35.5C 245.509,32.8036 247.509,30.1369 249.5,27.5 Z"/></g>
<g><path style="opacity:0.725" fill="#555d66" d="M 176.5,38.5 C 179.167,38.5 181.833,38.5 184.5,38.5C 184.5,41.8333 184.5,45.1667 184.5,48.5C 181.833,48.5 179.167,48.5 176.5,48.5C 176.5,45.1667 176.5,41.8333 176.5,38.5 Z"/></g>
<g><path style="opacity:0.829" fill="#555d66" d="M 223.5,38.5 C 225.5,38.5 227.5,38.5 229.5,38.5C 229.334,46.84 229.5,55.1733 230,63.5C 232.374,59.2505 234.874,55.0838 237.5,51C 240.554,50.1786 243.554,50.3452 246.5,51.5C 243.583,55.6661 240.916,59.9994 238.5,64.5C 240.916,69.0006 243.583,73.3339 246.5,77.5C 243.554,78.6548 240.554,78.8214 237.5,78C 234.874,73.9162 232.374,69.7495 230,65.5C 229.501,69.8206 229.334,74.1539 229.5,78.5C 226.833,78.5 224.167,78.5 221.5,78.5C 220.88,64.92 221.547,51.5867 223.5,38.5 Z"/></g>
<g><path style="opacity:0.512" fill="#1bbffd" d="M 16.5,39.5 C 28.5,39.5 40.5,39.5 52.5,39.5C 52.5,40.5 52.5,41.5 52.5,42.5C 40.5,42.5 28.5,42.5 16.5,42.5C 16.5,41.5 16.5,40.5 16.5,39.5 Z"/></g>
<g><path style="opacity:0.814" fill="#555d66" d="M 62.5,48.5 C 69.8987,46.7535 75.3987,49.0868 79,55.5C 79.6667,62.8333 79.6667,70.1667 79,77.5C 76.4082,78.9817 74.0749,78.6483 72,76.5C 60.7442,81.0537 55.7442,77.387 57,65.5C 57.8333,64.6667 58.6667,63.8333 59.5,63C 63.3628,61.6463 67.3628,61.1463 71.5,61.5C 71.7135,59.8561 71.3802,58.3561 70.5,57C 66.5138,56.5012 62.5138,56.3345 58.5,56.5C 58.6427,54.7376 58.3094,53.0709 57.5,51.5C 59.1446,50.3037 60.8113,49.3037 62.5,48.5 Z M 65.5,67.5 C 67.5,67.5 69.5,67.5 71.5,67.5C 71.67,68.8221 71.3366,69.9887 70.5,71C 68.5273,71.4955 66.5273,71.6621 64.5,71.5C 64.4326,70.0413 64.7659,68.7079 65.5,67.5 Z"/></g>
<g><path style="opacity:0.811" fill="#555d66" d="M 90.5,48.5 C 94.9362,48.2101 99.2695,48.7101 103.5,50C 103.986,52.0266 103.986,54.1933 103.5,56.5C 100.552,56.7771 97.7191,56.4438 95,55.5C 93.8419,55.9981 93.0085,56.8315 92.5,58C 96.4846,59.801 100.318,61.9677 104,64.5C 104.667,67.8333 104.667,71.1667 104,74.5C 102.786,76.0488 101.286,77.2155 99.5,78C 94.4724,78.5883 89.4724,78.4216 84.5,77.5C 84.5,75.1667 84.5,72.8333 84.5,70.5C 88.4517,71.2721 92.4517,71.6054 96.5,71.5C 96.5,70.1667 96.5,68.8333 96.5,67.5C 86.8952,67.4059 83.0619,62.7393 85,53.5C 86.7038,51.6266 88.5372,49.9599 90.5,48.5 Z"/></g>
<g><path style="opacity:0.847" fill="#555d66" d="M 106.5,49.5 C 109.247,49.1866 111.914,49.52 114.5,50.5C 116.432,56.4644 118.266,62.4644 120,68.5C 122.343,62.3062 124.176,55.9728 125.5,49.5C 128.167,49.5 130.833,49.5 133.5,49.5C 130.383,62.3522 126.55,75.0189 122,87.5C 119.619,88.435 117.119,88.7683 114.5,88.5C 114.958,84.8338 115.958,81.3338 117.5,78C 116.552,77.5172 115.552,77.3505 114.5,77.5C 112.036,68.1082 109.369,58.7749 106.5,49.5 Z"/></g>
<g><path style="opacity:0.86" fill="#555d66" d="M 176.5,50.5 C 179.167,50.5 181.833,50.5 184.5,50.5C 184.5,59.8333 184.5,69.1667 184.5,78.5C 181.833,78.5 179.167,78.5 176.5,78.5C 176.5,69.1667 176.5,59.8333 176.5,50.5 Z"/></g>
<g><path style="opacity:0.844" fill="#555d66" d="M 191.5,50.5 C 194.394,50.0423 196.894,50.709 199,52.5C 204.092,49.9491 209.092,49.9491 214,52.5C 215.441,61.0578 215.941,69.7244 215.5,78.5C 212.833,78.5 210.167,78.5 207.5,78.5C 207.666,71.825 207.5,65.1583 207,58.5C 204.841,57.8033 202.674,58.1366 200.5,59.5C 199.504,65.7985 199.17,72.1318 199.5,78.5C 196.833,78.5 194.167,78.5 191.5,78.5C 191.5,69.1667 191.5,59.8333 191.5,50.5 Z"/></g>
<g><path style="opacity:0.987" fill="#16b9f5" d="M 152.5,69.5 C 148.167,69.5 143.833,69.5 139.5,69.5C 139.5,58.8333 139.5,48.1667 139.5,37.5C 143.833,37.5 148.167,37.5 152.5,37.5C 152.5,48.1667 152.5,58.8333 152.5,69.5 Z"/></g>
<g><path style="opacity:0.683" fill="#14b6f3" d="M 30.5,66.5 C 25.8333,66.5 21.1667,66.5 16.5,66.5C 16.5,59.8333 16.5,53.1667 16.5,46.5C 33.7825,46.4941 33.7825,45.8275 16.5,44.5C 28.4815,43.501 40.4815,43.1677 52.5,43.5C 52.5,44.5 52.5,45.5 52.5,46.5C 45.1667,46.5 37.8333,46.5 30.5,46.5C 30.5,49.1667 30.5,51.8333 30.5,54.5C 37.1667,54.5 43.8333,54.5 50.5,54.5C 50.5,57.5 50.5,60.5 50.5,63.5C 43.8333,63.5 37.1667,63.5 30.5,63.5C 30.5,64.5 30.5,65.5 30.5,66.5 Z"/></g>
<g><path style="opacity:0.633" fill="#07b0ef" d="M 152.5,69.5 C 159.167,69.5 165.833,69.5 172.5,69.5C 172.5,70.5 172.5,71.5 172.5,72.5C 161.48,72.8321 150.48,72.4988 139.5,71.5C 143.982,70.8331 148.316,70.1664 152.5,69.5 Z"/></g>
<g><path style="opacity:0.968" fill="#04afef" d="M 16.5,66.5 C 21.1667,66.5 25.8333,66.5 30.5,66.5C 37.4238,68.4633 44.7572,69.1299 52.5,68.5C 52.5,71.8333 52.5,75.1667 52.5,78.5C 40.5,78.5 28.5,78.5 16.5,78.5C 16.5,74.5 16.5,70.5 16.5,66.5 Z"/></g>
<g><path style="opacity:0.52" fill="#03afef" d="M 139.5,73.5 C 150.5,73.5 161.5,73.5 172.5,73.5C 172.5,74.5 172.5,75.5 172.5,76.5C 161.5,76.5 150.5,76.5 139.5,76.5C 139.5,75.5 139.5,74.5 139.5,73.5 Z"/></g>
<g><path style="opacity:0.75" fill="#00aeef" d="M 139.5,77.5 C 150.52,77.1679 161.52,77.5012 172.5,78.5C 167,78.8333 161.5,79.1667 156,79.5C 150.124,79.4952 144.624,78.8286 139.5,77.5 Z"/></g>
<g><path style="opacity:0.777" fill="#555d66" d="M 141.5,89.5 C 145.167,89.5 148.833,89.5 152.5,89.5C 152.847,93.7932 151.18,94.7932 147.5,92.5C 145.681,92.3422 144.348,93.0089 143.5,94.5C 146.407,95.9812 149.407,97.3145 152.5,98.5C 154.524,104.329 152.357,107.329 146,107.5C 143.863,106.923 141.696,106.59 139.5,106.5C 139.5,105.5 139.5,104.5 139.5,103.5C 142.5,103.5 145.5,103.5 148.5,103.5C 148.5,102.5 148.5,101.5 148.5,100.5C 139.849,100.55 137.516,96.8829 141.5,89.5 Z"/></g>
<g><path style="opacity:0.821" fill="#555d66" d="M 161.5,89.5 C 165.24,89.2408 168.906,89.5741 172.5,90.5C 174.27,93.1934 174.937,96.1934 174.5,99.5C 170.445,99.1758 166.445,99.5091 162.5,100.5C 163.628,102.556 165.462,103.556 168,103.5C 171.254,102.108 173.421,102.775 174.5,105.5C 161.329,110.595 156.162,106.261 159,92.5C 160.045,91.6266 160.878,90.6266 161.5,89.5 Z M 164.5,92.5 C 167.278,92.0217 169.278,93.0217 170.5,95.5C 167.833,96.8333 165.167,96.8333 162.5,95.5C 163.193,94.4822 163.859,93.4822 164.5,92.5 Z"/></g>
<g><path style="opacity:0.753" fill="#555d66" d="M 180.5,89.5 C 182.451,89.2267 183.951,89.8934 185,91.5C 186.584,90.1387 188.418,89.472 190.5,89.5C 190.5,90.8333 190.5,92.1667 190.5,93.5C 188.61,93.2965 187.11,93.9632 186,95.5C 185.501,99.1516 185.335,102.818 185.5,106.5C 183.833,106.5 182.167,106.5 180.5,106.5C 180.5,100.833 180.5,95.1667 180.5,89.5 Z"/></g>
<g><path style="opacity:0.768" fill="#555d66" d="M 191.5,90.5 C 193.035,89.2121 194.701,89.2121 196.5,90.5C 198,94.1667 199.5,97.8333 201,101.5C 202.992,97.6918 204.492,93.6918 205.5,89.5C 207.288,89.2148 208.955,89.5481 210.5,90.5C 208.5,95.5 206.5,100.5 204.5,105.5C 202.305,106.769 200.139,106.769 198,105.5C 195.906,100.358 193.74,95.3577 191.5,90.5 Z"/></g>
<g><path style="opacity:0.796" fill="#555d66" d="M 216.5,89.5 C 220.637,89.1463 224.637,89.6463 228.5,91C 229.444,93.7191 229.777,96.5525 229.5,99.5C 225.833,99.5 222.167,99.5 218.5,99.5C 218.33,100.822 218.663,101.989 219.5,103C 222.562,103.741 225.562,103.575 228.5,102.5C 229.429,103.689 229.762,105.022 229.5,106.5C 213.796,109.413 209.463,103.746 216.5,89.5 Z M 219.5,92.5 C 222.969,91.8872 224.969,93.2206 225.5,96.5C 223.167,96.5 220.833,96.5 218.5,96.5C 218.433,95.0413 218.766,93.7079 219.5,92.5 Z"/></g>
<g><path style="opacity:0.748" fill="#555d66" d="M 235.5,89.5 C 237.451,89.2267 238.951,89.8934 240,91.5C 241.584,90.1387 243.418,89.472 245.5,89.5C 245.707,92.7454 244.207,94.7454 241,95.5C 240.501,99.1516 240.335,102.818 240.5,106.5C 238.833,106.5 237.167,106.5 235.5,106.5C 235.5,100.833 235.5,95.1667 235.5,89.5 Z"/></g>
</svg>
